<svg role="presentation" width="100" height="40" viewBox="0 0 32 32" aria-label="open cart" title="Cart-i10n"><title>Cart-i10n</title><g fill="none"><g><path d="M0 0H32V32H0z" transform="translate(-269 -537) translate(269 537)"></path><g transform="translate(-269 -537) translate(269 537) translate(4 6)"><g><path stroke="#FFF" stroke-linecap="round" stroke-width="2" d="M7.736 2.047h15.675c.165 0 .3.135.3.3 0 .024-.003.048-.009.071l-2.676 10.99c-.032.135-.153.23-.291.23H6.975c-.131 0-.247-.085-.286-.21L2.519.21C2.48.085 2.364 0 2.233 0H0h0"></path><circle cx="18.75" cy="19.043" r="1.75" fill="#FFF"></circle></g><circle cx="8.75" cy="19.043" r="1.75" fill="#FFF"></circle></g></g></g></svg>